<?xml version="1.0" encoding="UTF-8" standalone="no"?>
<svg
   version="1.2"
   viewBox="0 0 511.99999 182.71594"
   width="512"
   height="182.71594"
   id="svg17"
   sodipodi:docname="Lactalis (2023).svg"
   inkscape:version="1.1.1 (3bf5ae0d25, 2021-09-20)"
   xmlns:inkscape="http://www.inkscape.org/namespaces/inkscape"
   xmlns:sodipodi="http://sodipodi.sourceforge.net/DTD/sodipodi-0.dtd"
   xmlns="http://www.w3.org/2000/svg">
  <style
     id="style2">.s0{fill:#004b85}</style>
  <g
     id="g15"
     transform="matrix(2.8240485,0,0,2.8240485,-0.28240485,0)">
    <g>
      <path
         class="s0"
         d="m 26.9,24.4 h -4.5 v 14.8 l 10.7,-0.1 c 1,0 1.9,-0.5 2.4,-1.3 0.3,-0.5 1.3,-2.1 1.3,-2.1 h -9.9 z" />
      <path
         fill-rule="evenodd"
         class="s0"
         d="m 50.5,24.4 8.6,14.8 h -3.3 c -0.7,0 -1.4,-0.4 -1.7,-1 C 54,38 53.6,37.4 53.6,37.4 H 42.9 c 0,0 -0.4,0.6 -0.5,0.8 -0.3,0.6 -1,1 -1.7,1 H 37.4 L 46,24.4 Z m -2.2,3.8 -3.4,5.7 h 6.7 z" />
      <path
         id="path6"
         class="s0"
         d="m 70.3,27.4 c 2.3,0 4.3,0.8 5.6,1.9 l 2.7,-2.1 c -2,-2 -5.2,-3.3 -8.9,-3.3 -6,0 -10.8,3.5 -10.8,7.9 0,4.3 4.8,7.8 10.8,7.8 3.6,0 6.8,-1.3 8.8,-3.3 l -2.7,-2 c -1.2,1.1 -3.2,1.8 -5.5,1.8 -3.7,0 -6.8,-1.9 -6.8,-4.3 0,-2.4 3.1,-4.4 6.8,-4.4 z M 95.8,26.5 C 96.1,26 97,24.4 97,24.4 H 80.5 v 3.5 h 5.2 v 11.3 h 4.5 V 27.9 h 3.2 c 1,0 1.9,-0.5 2.4,-1.4 z" />
      <path
         id="path8"
         fill-rule="evenodd"
         class="s0"
         d="m 106.9,24.4 8.6,14.8 h -3.3 c -0.7,0 -1.3,-0.4 -1.7,-1 l -0.4,-0.8 H 99.3 c 0,0 -0.4,0.6 -0.5,0.8 -0.3,0.6 -1,1 -1.7,1 h -3.3 l 8.6,-14.8 z m -2.2,3.8 -3.4,5.7 h 6.7 z" />
      <path
         id="path10"
         class="s0"
         d="m 122,24.4 h -4.5 v 14.8 l 10.2,-0.1 c 1.8,0 3.5,-1.2 4.1,-3 0,-0.1 0.1,-0.4 0.1,-0.4 H 122 Z m 12.3,14.7 h 4.5 V 24.4 h -4.5 z m 23,-7.3 q -1.8,-1 -5.9,-1.7 -2.9,-0.5 -3.9,-0.9 -1,-0.3 -1.1,-0.8 c 0,-0.5 1.3,-1.2 4.5,-1.2 3.2,0 5.2,0.8 6,1.2 l 1.1,-2.5 c -1.4,-1.2 -4.4,-2 -7.2,-2 -3.5,0 -8.6,1.4 -8.6,4.5 q 0,2.1 1.8,3.2 1.8,1 5.9,1.7 2.9,0.5 3.9,0.9 1,0.4 1,0.9 c 0,0.6 -1.7,1.2 -4.7,1.2 -3,0 -6.4,-1.2 -7.4,-1.7 l -0.8,2.4 c 1.4,1.3 4.7,2.6 8.3,2.6 4.4,0 8.9,-1.4 8.9,-4.8 q 0,-1.9 -1.8,-3 z" />
    </g>
    <path
       id="path13"
       d="M 44.6,60.3 C 56.8,61.9 70.5,62 84.9,62 140.5,62 175,43.8 174.4,26.9 q -0.1,-2 -0.9,-3.9 c -1.7,-4.1 7.9,-0.4 7.9,8.7 0,17.5 -30.9,33 -90.6,33 -16.9,0 -32.7,-1.6 -46.2,-4.4 z M 137,4.4 C 124.8,2.9 111.1,2.2 96.7,2.7 46.7,4.5 6.6,19.7 7.2,36.6 q 0,2 0.8,3.9 C 9.7,44.5 0.1,40.8 0.1,31.7 0.1,14.2 40.7,0 90.8,0 107.7,0 123.5,1.6 137,4.4 Z"
       fill="#5bc5f2" />
  </g>
</svg>
